<?xml version="1.0" encoding="utf-8"?>
<!-- Generator: Adobe Illustrator 26.0.3, SVG Export Plug-In . SVG Version: 6.00 Build 0)  -->
<svg version="1.1" id="Layer_1" xmlns="http://www.w3.org/2000/svg" xmlns:xlink="http://www.w3.org/1999/xlink" x="0px" y="0px"
	 viewBox="0 0 1764.78 784.17" style="enable-background:new 0 0 1764.78 784.17;" xml:space="preserve">
<style type="text/css">
	.st0{fill:url(#SVGID_1_);}
	.st1{fill:url(#SVGID_00000045598082708347819080000002755174206608776327_);}
	.st2{fill:url(#SVGID_00000075160359035298034410000009391854156406463907_);}
	.st3{fill:url(#SVGID_00000024687373643329532460000000724274655187879357_);}
	.st4{fill:url(#SVGID_00000157997606989206502200000007087556548330635395_);}
	.st5{fill:url(#SVGID_00000175323932526719998250000001024422423874600332_);}
	.st6{fill:url(#SVGID_00000040555417035657674460000000217514727264078505_);}
	.st7{fill:url(#SVGID_00000026851967046418594130000012107644302256215454_);}
	.st8{fill:url(#SVGID_00000175297256133521859050000002440257614043717555_);}
	.st9{fill:url(#SVGID_00000068651613576676512790000005006745061059962008_);}
	.st10{fill:url(#SVGID_00000096024501198264406280000000117312466858585277_);}
	.st11{fill:url(#SVGID_00000138557185959148658090000002717701354493499828_);}
	.st12{fill:url(#SVGID_00000091008207943502218790000014286349089667740290_);}
	.st13{fill:url(#SVGID_00000080886431037325677300000003683160278396703884_);}
	.st14{fill:url(#SVGID_00000067923892615099526510000010543785371033106861_);}
	.st15{fill:url(#SVGID_00000160880072010030976710000010930282501798013599_);}
	.st16{fill:url(#SVGID_00000124863933835536326800000013756735467740038334_);}
	.st17{fill:url(#SVGID_00000029038767018233153900000013457770073932116656_);}
	.st18{fill:url(#SVGID_00000070839716231928067610000013718124603142774709_);}
	.st19{fill:url(#SVGID_00000103943585069679285900000001168704710859031938_);}
	.st20{fill:url(#SVGID_00000135660296600679549670000001321904659135612047_);}
	.st21{fill:url(#SVGID_00000026131884834212807300000001824997115017577407_);}
	.st22{fill:url(#SVGID_00000112595382260449395510000004571657792757168516_);}
	.st23{fill:url(#SVGID_00000003072707599218433070000013825838998324881836_);}
	.st24{fill:url(#SVGID_00000124868267903118549890000017777500439330670515_);}
	.st25{fill:url(#SVGID_00000146486996040727732390000017216235704813610939_);}
	.st26{fill:url(#SVGID_00000137095233966728557010000002327343528844512178_);}
	.st27{fill:url(#SVGID_00000181779832436595527810000012557355600036080032_);}
	.st28{fill:url(#SVGID_00000026135067517245355720000017054209813179033498_);}
	.st29{fill:url(#SVGID_00000176009226721005457430000016040142473128649908_);}
</style>
<g>
	<g>
		<path d="M288.92,467.11c-16.1,0-29.93-3.1-41.48-9.29c-11.56-6.19-20.4-14.93-26.52-26.21c-6.12-11.28-9.18-24.49-9.18-39.63
			c0-11.28,1.75-21.53,5.26-30.75c3.51-9.22,8.6-17.13,15.27-23.73c6.67-6.6,14.79-11.66,24.35-15.17
			c9.56-3.51,20.33-5.26,32.3-5.26c6.33,0,12.9,0.72,19.71,2.17c6.81,1.44,12.83,3.61,18.06,6.5c3.85,2.06,6.53,4.68,8.05,7.84
			c1.51,3.17,2.03,6.4,1.55,9.7c-0.48,3.3-1.69,6.26-3.61,8.88c-1.93,2.62-4.41,4.37-7.43,5.26c-3.03,0.9-6.33,0.45-9.91-1.34
			c-4.13-1.93-8.22-3.41-12.28-4.44c-4.06-1.03-8.29-1.55-12.69-1.55c-8.53,0-15.65,1.62-21.36,4.85
			c-5.71,3.23-10.01,7.95-12.9,14.14c-2.89,6.19-4.33,13.83-4.33,22.91s1.45,16.75,4.33,23.01c2.89,6.26,7.19,11.01,12.9,14.24
			c5.71,3.23,12.83,4.85,21.36,4.85c3.58,0,7.43-0.45,11.56-1.34c4.13-0.89,8.18-2.3,12.18-4.23c4.13-1.79,7.81-2.27,11.04-1.44
			c3.23,0.83,5.85,2.48,7.84,4.95c1.99,2.48,3.27,5.33,3.82,8.57c0.55,3.23,0.1,6.43-1.34,9.6c-1.44,3.17-3.96,5.71-7.53,7.64
			c-4.82,2.89-10.77,5.16-17.85,6.81C302.98,466.28,295.94,467.11,288.92,467.11z"/>
		<path d="M422.66,467.11c-14.72,0-27.66-3.13-38.8-9.39c-11.15-6.26-19.78-15.03-25.9-26.31c-6.12-11.28-9.18-24.42-9.18-39.42
			c0-11.28,1.75-21.53,5.26-30.75c3.51-9.22,8.53-17.13,15.07-23.73c6.53-6.6,14.34-11.66,23.43-15.17
			c9.08-3.51,19.12-5.26,30.13-5.26c14.72,0,27.62,3.1,38.7,9.29c11.07,6.19,19.71,14.9,25.9,26.11
			c6.19,11.22,9.29,24.39,9.29,39.52c0,11.28-1.75,21.54-5.26,30.75c-3.51,9.22-8.53,17.17-15.07,23.84
			c-6.54,6.68-14.34,11.76-23.43,15.27C443.71,465.36,433.67,467.11,422.66,467.11z M422.66,435.33c7.29,0,13.48-1.72,18.58-5.16
			c5.09-3.44,9.01-8.39,11.76-14.86c2.75-6.47,4.13-14.24,4.13-23.32c0-13.62-3.03-24.22-9.08-31.78
			c-6.06-7.57-14.52-11.35-25.39-11.35c-7.16,0-13.31,1.69-18.47,5.06c-5.16,3.37-9.12,8.26-11.87,14.65
			c-2.75,6.4-4.13,14.21-4.13,23.43c0,13.62,3.02,24.25,9.08,31.89C403.33,431.51,411.79,435.33,422.66,435.33z"/>
		<path d="M536.79,466.7c-5.78,0-10.18-1.52-13.21-4.54c-3.03-3.02-4.54-7.5-4.54-13.42V336.26c0-6.05,1.51-10.7,4.54-13.93
			c3.02-3.23,7.02-4.85,11.97-4.85c4.4,0,7.84,0.83,10.32,2.48c2.48,1.65,5.23,4.41,8.26,8.26l65.43,81.73h-5.78v-74.71
			c0-5.78,1.48-10.18,4.44-13.21c2.96-3.03,7.33-4.54,13.11-4.54c5.78,0,10.15,1.52,13.11,4.54c2.96,3.03,4.44,7.43,4.44,13.21
			v114.34c0,5.23-1.38,9.39-4.13,12.49c-2.75,3.1-6.47,4.64-11.15,4.64c-4.68,0-8.36-0.86-11.04-2.58
			c-2.68-1.72-5.54-4.44-8.57-8.15l-65.43-81.94h5.78v74.71c0,5.92-1.48,10.39-4.44,13.42C546.94,465.18,542.57,466.7,536.79,466.7z
			"/>
		<path d="M693.24,466.7c-5.78,0-10.18-1.52-13.21-4.54c-3.03-3.02-4.54-7.5-4.54-13.42V336.26c0-6.05,1.51-10.7,4.54-13.93
			c3.02-3.23,7.02-4.85,11.97-4.85c4.4,0,7.84,0.83,10.32,2.48c2.48,1.65,5.23,4.41,8.26,8.26L776,409.94h-5.78v-74.71
			c0-5.78,1.48-10.18,4.44-13.21c2.96-3.03,7.33-4.54,13.11-4.54c5.78,0,10.15,1.52,13.11,4.54c2.96,3.03,4.44,7.43,4.44,13.21
			v114.34c0,5.23-1.38,9.39-4.13,12.49c-2.75,3.1-6.47,4.64-11.15,4.64c-4.68,0-8.36-0.86-11.04-2.58
			c-2.68-1.72-5.54-4.44-8.57-8.15L705,374.03h5.78v74.71c0,5.92-1.48,10.39-4.44,13.42C703.38,465.18,699.02,466.7,693.24,466.7z"
			/>
		<path d="M851.74,464.84c-6.47,0-11.39-1.68-14.76-5.06c-3.37-3.37-5.06-8.22-5.06-14.55V338.94c0-6.33,1.68-11.18,5.06-14.55
			c3.37-3.37,8.29-5.06,14.76-5.06h69.97c4.95,0,8.67,1.24,11.15,3.71c2.48,2.48,3.71,6.06,3.71,10.73c0,4.82-1.24,8.5-3.71,11.04
			c-2.48,2.55-6.19,3.82-11.15,3.82h-53.46v27.66h48.91c4.81,0,8.49,1.24,11.04,3.71c2.54,2.48,3.82,6.12,3.82,10.94
			c0,4.82-1.27,8.46-3.82,10.94c-2.55,2.48-6.23,3.72-11.04,3.72h-48.91v29.93h53.46c4.95,0,8.67,1.27,11.15,3.82
			c2.48,2.55,3.71,6.16,3.71,10.84c0,4.82-1.24,8.46-3.71,10.94c-2.48,2.48-6.19,3.71-11.15,3.71H851.74z"/>
		<path d="M1032.54,467.11c-16.1,0-29.93-3.1-41.48-9.29c-11.56-6.19-20.4-14.93-26.52-26.21c-6.12-11.28-9.18-24.49-9.18-39.63
			c0-11.28,1.75-21.53,5.26-30.75c3.51-9.22,8.6-17.13,15.27-23.73c6.67-6.6,14.79-11.66,24.35-15.17
			c9.56-3.51,20.33-5.26,32.3-5.26c6.33,0,12.9,0.72,19.71,2.17c6.81,1.44,12.83,3.61,18.06,6.5c3.85,2.06,6.53,4.68,8.05,7.84
			c1.51,3.17,2.03,6.4,1.55,9.7c-0.48,3.3-1.69,6.26-3.61,8.88c-1.93,2.62-4.41,4.37-7.43,5.26c-3.03,0.9-6.33,0.45-9.91-1.34
			c-4.13-1.93-8.22-3.41-12.28-4.44c-4.06-1.03-8.29-1.55-12.69-1.55c-8.53,0-15.65,1.62-21.36,4.85
			c-5.71,3.23-10.01,7.95-12.9,14.14c-2.89,6.19-4.33,13.83-4.33,22.91s1.45,16.75,4.33,23.01c2.89,6.26,7.19,11.01,12.9,14.24
			c5.71,3.23,12.83,4.85,21.36,4.85c3.58,0,7.43-0.45,11.56-1.34c4.13-0.89,8.18-2.3,12.18-4.23c4.13-1.79,7.81-2.27,11.04-1.44
			c3.23,0.83,5.85,2.48,7.84,4.95c1.99,2.48,3.27,5.33,3.82,8.57c0.55,3.23,0.1,6.43-1.34,9.6c-1.44,3.17-3.96,5.71-7.53,7.64
			c-4.82,2.89-10.77,5.16-17.85,6.81C1046.61,466.28,1039.56,467.11,1032.54,467.11z"/>
		<path d="M1152.25,466.7c-6.06,0-10.73-1.69-14.03-5.06c-3.3-3.37-4.95-8.08-4.95-14.14v-97.21h-32.4c-5.09,0-8.98-1.34-11.66-4.02
			c-2.68-2.68-4.03-6.5-4.03-11.45c0-5.09,1.34-8.94,4.03-11.56c2.68-2.61,6.57-3.92,11.66-3.92h102.78c5.09,0,8.98,1.31,11.66,3.92
			c2.68,2.62,4.02,6.47,4.02,11.56c0,4.95-1.34,8.77-4.02,11.45c-2.68,2.68-6.57,4.02-11.66,4.02h-32.4v97.21
			c0,6.06-1.58,10.77-4.75,14.14C1163.32,465.01,1158.57,466.7,1152.25,466.7z"/>
		<path d="M1297.75,466.7c-4.27,0-7.84-1-10.73-2.99c-2.89-1.99-4.68-4.75-5.37-8.26c-0.69-3.51-0.07-7.46,1.86-11.87l51.39-110.63
			c2.48-5.37,5.54-9.29,9.18-11.76c3.64-2.48,7.81-3.71,12.49-3.71c4.68,0,8.77,1.24,12.28,3.71c3.51,2.48,6.57,6.4,9.18,11.76
			l51.39,110.63c2.2,4.41,2.99,8.39,2.37,11.97c-0.62,3.58-2.34,6.33-5.16,8.26c-2.82,1.92-6.3,2.89-10.42,2.89
			c-5.5,0-9.74-1.24-12.69-3.72c-2.96-2.48-5.61-6.47-7.95-11.97l-11.15-26.21l14.45,10.53h-85.03l14.65-10.53l-11.15,26.21
			c-2.48,5.5-5.02,9.49-7.64,11.97C1307.11,465.46,1303.12,466.7,1297.75,466.7z M1356.16,358.96l-23.94,57.17l-5.78-9.91h60.06
			l-5.78,9.91l-24.15-57.17H1356.16z"/>
		<path d="M1468.23,464.84c-6.47,0-11.39-1.68-14.76-5.06c-3.37-3.37-5.06-8.22-5.06-14.55V338.94c0-6.33,1.68-11.18,5.06-14.55
			c3.37-3.37,8.29-5.06,14.76-5.06h69.97c4.95,0,8.67,1.24,11.15,3.71c2.48,2.48,3.72,6.06,3.72,10.73c0,4.82-1.24,8.5-3.72,11.04
			c-2.48,2.55-6.19,3.82-11.15,3.82h-53.46v27.66h48.92c4.81,0,8.49,1.24,11.04,3.71c2.54,2.48,3.82,6.12,3.82,10.94
			c0,4.82-1.27,8.46-3.82,10.94c-2.55,2.48-6.23,3.72-11.04,3.72h-48.92v29.93h53.46c4.95,0,8.67,1.27,11.15,3.82
			c2.48,2.55,3.72,6.16,3.72,10.84c0,4.82-1.24,8.46-3.72,10.94c-2.48,2.48-6.19,3.71-11.15,3.71H1468.23z"/>
	</g>
</g>
</svg>
