<?xml version="1.0" encoding="utf-8"?>
<!-- Generator: Adobe Illustrator 26.0.3, SVG Export Plug-In . SVG Version: 6.00 Build 0)  -->
<svg version="1.1" id="Layer_1" xmlns="http://www.w3.org/2000/svg" xmlns:xlink="http://www.w3.org/1999/xlink" x="0px" y="0px"
	 viewBox="0 0 1000 1000" style="enable-background:new 0 0 1000 1000;" xml:space="preserve">
<style type="text/css">
	.st0{fill:url(#SVGID_1_);}
	.st1{fill:url(#SVGID_00000165226749278471223320000011649548510010530993_);}
	.st2{fill:url(#SVGID_00000014623677065118588410000015818816564257818542_);}
	.st3{fill:url(#SVGID_00000106828793290530702540000004016117072740713344_);}
	.st4{fill:url(#SVGID_00000093170866077222537710000005264196961936631482_);}
	.st5{fill:url(#SVGID_00000022521586507771550070000011824476076433915291_);}
	.st6{fill:url(#SVGID_00000062878286558748468620000011473921839835856824_);}
	.st7{fill:url(#SVGID_00000145032987222342032810000000489103261097723542_);}
	.st8{fill:url(#SVGID_00000052083225731740580160000000598734895646102400_);}
	.st9{fill:url(#SVGID_00000030460726791302284120000014344158829424148103_);}
	.st10{fill:url(#SVGID_00000160156947552181311340000014659774980191003560_);}
	.st11{fill:url(#SVGID_00000044892307299605174230000008480900228768836509_);}
	.st12{fill:url(#SVGID_00000102538428018919045510000003963504535271734941_);}
	.st13{fill:url(#SVGID_00000062185296290836769330000009475707954005935548_);}
	.st14{fill:url(#SVGID_00000039848127665073825390000005425729746937426105_);}
	.st15{fill:url(#SVGID_00000102510478371126704350000001315591102433834412_);}
	.st16{fill:url(#SVGID_00000091698999190929040160000018335330028383404966_);}
	.st17{fill:url(#SVGID_00000025412669145362679100000015515832580520184240_);}
	.st18{fill:url(#SVGID_00000172415837305403800080000013308693401012665238_);}
	.st19{fill:url(#SVGID_00000025427936577116703030000011174978779498439572_);}
	.st20{fill:url(#SVGID_00000042725301038099971030000009198306136513945519_);}
	.st21{fill:url(#SVGID_00000109719144670835303240000013624948164535686034_);}
	.st22{fill:url(#SVGID_00000142137414986980419080000006116676925348334770_);}
	.st23{fill:url(#SVGID_00000039822542603114624660000001767353247454002104_);}
	.st24{fill:url(#SVGID_00000061461458936434451370000013345217006322859678_);}
	.st25{fill:url(#SVGID_00000146472527889982792680000003521024302842233771_);}
	.st26{fill:url(#SVGID_00000039826019338873186240000017686674444433641138_);}
	.st27{fill:url(#SVGID_00000065775846814324777740000011375323460022696849_);}
	.st28{fill:url(#SVGID_00000008849378923783885530000017852629576278902144_);}
	.st29{fill:url(#SVGID_00000150800505583939402160000007938993884774498962_);}
</style>
<g>
	<g>
		<g>
			<linearGradient id="SVGID_1_" gradientUnits="userSpaceOnUse" x1="118.7073" y1="500" x2="919.3448" y2="500">
				<stop  offset="0" style="stop-color:#B91F26"/>
				<stop  offset="0.4916" style="stop-color:#1D1D1D"/>
				<stop  offset="1" style="stop-color:#0D8242"/>
			</linearGradient>
			<path class="st0" d="M868.93,279.97c-14.76-40.69-41.82-67.68-80.57-80.29L498.75,91.28c-0.98-0.27-7.87-2.06-17.18-2.06
				c-23.9,0-64.3,11.95-66.4,91.86v194.45l0.14,22.24c-0.05-0.01-0.09-0.03-0.14-0.04v0.11l-5.2-1.63
				c-97.85-30.74-187.49-69.42-196.24-73.23c-0.41-0.01-1-0.03-1.74-0.03c-15.26,0-91.38,5.04-91.38,104.53l0,269.34l-0.03,0.25
				c-0.02,0.2-2.31,19.89,8.62,44.2c14.48,32.22,45.59,58.03,89.96,74.62l223.17,81.35l0.22,0.09c0.31,0.13,31.48,13.46,64.36,13.46
				c48.16,0,74.12-27.54,77.15-81.86V680.88l0.68-63.4v-0.01l19.09,6.97l176.29,64.26l0.16,0.08c0.16,0.08,16.28,7.52,35.23,7.52
				c0,0,0,0,0.01,0c41.26,0,63.44-34.55,64.15-99.86V338.23C879.64,337.95,880.05,310.62,868.93,279.97z M467.4,194.3
				c0.01-0.39,1.17-38.86,40.52-38.86c9.94,0,21.59,2.54,34.61,7.56l165.28,63.69l0.16,0.08c1.38,0.68,33.88,17.06,37.52,44.29
				c2.05,15.36-5.47,30.75-22.36,45.73C668.3,365.42,610.66,404.34,610,404.78c-0.99,0.63-24.77,15.46-74.81,15.46
				c-20.13,0-41.87-2.44-64.62-7.24l-3.17-0.67V391.2V194.3z M530.61,543.37l-12.49-4.56c-4.4-0.76-32.42-7.7-45.01-61.38
				l-1.63-6.95l6.77,2.24c12.47,4.12,42.41,18.57,51.04,63.73L530.61,543.37z M203.05,670.45c-13.67,0-30.13-7.94-30.94-45.84V433.1
				c-0.17-2.5-1.51-27.59,12.08-42.27c6.35-6.86,14.86-10.34,25.3-10.34c2.89,0,5.96,0.27,9.14,0.81l0.34,0.06l196.2,69.42v6.69
				c0.59,4.96,4.62,56.64-73.25,117.1c-78.13,60.65-100.72,80.96-100.94,81.16l-0.14,0.13l-0.16,0.12
				C239.88,656.57,220.96,670.45,203.05,670.45z M531.54,823.21l-0.1,0.43c-0.07,0.31-7.25,30.72-43.31,30.72
				c-6.15,0-12.87-0.9-19.97-2.67l-0.19-0.05l-223.86-79.5l-0.42-0.29c-0.33-0.22-8.08-5.61-8.54-17.26
				c-0.65-16.55,13.37-36.41,41.66-59.05c60.31-48.25,100.83-77.53,103.3-79.31c2.57-2.12,34.26-27.24,90.85-27.24
				c18.61,0,38.01,2.78,57.64,8.27l2.92,0.82V823.21z M827.4,587.31l-0.03,0.24c-0.05,0.42-5.68,41.98-47,41.98
				c-9.28,0-19.75-2.15-31.08-6.38L603.8,570.07l-18.95-6.13l0-0.78l0.24-3.03c2.12-26.43,11.48-75.45,50.44-106.84l121.51-95.64
				l0.29-0.16c0.45-0.25,11.25-6.1,24.39-6.1c20.3,0,44.7,13.33,45.68,76.88V587.31z"/>
		</g>
	</g>
</g>
</svg>
